# xmcd
#
# Track frame offsets:
#	182
#	16655
#	28970
#	45097
#	65050
#	83142
#	95955
#
# Disc length: 1415 seconds
#
# Revision: 0
# Processed by: cddbd v1.5.2PL0 Copyright (c) Steve Scherf et al.
# Submitted via: EasyCDDAExtractor 10.0.2.1
#
DISCID=52058507
DTITLE=Various Artist - Goldenvine Productions Phase IV
DYEAR=1993
DGENRE=Gospel
TTITLE0=The Freemans - Come Spring
TTITLE1=The Cornetts - Refined
TTITLE2=Peaceful Hearts - Shadow Of The Cross
TTITLE3=Chuck Higginbotham - I Thank God
TTITLE4=Dondri Mangum - Unseen Servant
TTITLE5=Pauline Patterson - He Will Deliver
TTITLE6=Steve Grimes - No One Lonely Here
EXTD=
EXTT0=
EXTT1=
EXTT2=
EXTT3=
EXTT4=
EXTT5=
EXTT6=
PLAYORDER=
